<svg data-v-423bf9ae="" xmlns="http://www.w3.org/2000/svg" viewBox="0 0 454 90" class="iconLeftSlogan"><!----><!----><!----><g data-v-423bf9ae="" id="6fcb41b8-8615-4e48-8ee3-cae4805e3b56" fill="black" transform="matrix(5.730659401617148,0,0,5.730659401617148,177.2645088262309,-23.03725020836012)"><path d="M5.24 4.96L5.24 4.96Q6.02 4.96 6.69 5.15L6.69 5.15L6.69 5.15Q7.35 5.33 8.04 5.74L8.04 5.74L8.36 5.47L8.36 5.47Q8.69 5.21 8.91 5.11L8.91 5.11L8.91 5.11Q9.13 5.01 9.41 5.01L9.41 5.01L9.41 5.01Q9.74 5.01 9.94 5.16L9.94 5.16L9.94 5.16Q10.14 5.31 10.14 5.59L10.14 5.59L10.14 5.59Q10.14 5.70 10.09 5.82L10.09 5.82L9.51 7.76L9.51 7.76Q9.41 8.09 9.26 8.23L9.26 8.23L9.26 8.23Q9.11 8.37 8.82 8.37L8.82 8.37L8.82 8.37Q8.51 8.37 8.28 8.18L8.28 8.18L8.28 8.18Q8.05 7.99 7.56 7.41L7.56 7.41L7.56 7.41Q7.07 6.85 6.67 6.62L6.67 6.62L6.67 6.62Q6.27 6.38 5.85 6.38L5.85 6.38L5.85 6.38Q5.54 6.38 5.33 6.59L5.33 6.59L5.33 6.59Q5.12 6.79 5.12 7.08L5.12 7.08L5.12 7.08Q5.12 7.42 5.46 7.71L5.46 7.71L5.46 7.71Q5.80 7.99 6.51 8.43L6.51 8.43L6.51 8.43Q7.24 8.86 7.71 9.21L7.71 9.21L7.71 9.21Q8.19 9.56 8.53 10.08L8.53 10.08L8.53 10.08Q8.86 10.60 8.86 11.27L8.86 11.27L8.86 11.27Q8.86 11.70 8.72 12.14L8.72 12.14L8.72 12.14Q8.39 13.26 7.42 13.84L7.42 13.84L7.42 13.84Q6.45 14.42 5.17 14.42L5.17 14.42L5.17 14.42Q4.20 14.42 3.54 14.20L3.54 14.20L3.54 14.20Q2.88 13.97 2.20 13.44L2.20 13.44L1.69 13.86L1.69 13.86Q1.34 14.15 1.12 14.26L1.12 14.26L1.12 14.26Q0.90 14.36 0.62 14.36L0.62 14.36L0.62 14.36Q0.29 14.36 0.10 14.21L0.10 14.21L0.10 14.21Q-0.08 14.06-0.08 13.79L-0.08 13.79L-0.08 13.79Q-0.08 13.65-0.03 13.50L-0.03 13.50L0.66 11.41L0.66 11.41Q0.77 11.05 0.97 10.89L0.97 10.89L0.97 10.89Q1.16 10.74 1.47 10.74L1.47 10.74L1.47 10.74Q1.79 10.74 2.05 10.96L2.05 10.96L2.05 10.96Q2.31 11.19 2.73 11.77L2.73 11.77L2.73 11.77Q3.18 12.42 3.56 12.67L3.56 12.67L3.56 12.67Q3.95 12.92 4.48 12.92L4.48 12.92L4.48 12.92Q4.86 12.92 5.06 12.80L5.06 12.80L5.06 12.80Q5.26 12.68 5.35 12.42L5.35 12.42L5.35 12.42Q5.38 12.35 5.38 12.21L5.38 12.21L5.38 12.21Q5.38 11.87 5.05 11.59L5.05 11.59L5.05 11.59Q4.73 11.31 4.06 10.92L4.06 10.92L4.06 10.92Q3.35 10.49 2.90 10.14L2.90 10.14L2.90 10.14Q2.45 9.80 2.12 9.28L2.12 9.28L2.12 9.28Q1.79 8.76 1.79 8.06L1.79 8.06L1.79 8.06Q1.79 7.57 1.95 7.10L1.95 7.10L1.95 7.10Q2.24 6.13 3.15 5.54L3.15 5.54L3.15 5.54Q4.06 4.96 5.24 4.96L5.24 4.96ZM14.64 6.96L14.64 6.96Q16.25 6.96 17.22 7.55L17.22 7.55L17.22 7.55Q18.19 8.15 18.19 9.37L18.19 9.37L18.19 9.37Q18.19 9.83 18.02 10.42L18.02 10.42L17.44 12.35L17.44 12.35Q17.43 12.40 17.43 12.49L17.43 12.49L17.43 12.49Q17.43 12.71 17.61 12.71L17.61 12.71L17.61 12.71Q17.78 12.71 17.90 12.57L17.90 12.57L17.90 12.57Q18.02 12.42 18.06 12.42L18.06 12.42L18.06 12.42Q18.13 12.42 18.18 12.52L18.18 12.52L18.18 12.52Q18.23 12.61 18.23 12.74L18.23 12.74L18.23 12.74Q18.24 13.12 17.94 13.51L17.94 13.51L17.94 13.51Q17.64 13.90 17.14 14.15L17.14 14.15L17.14 14.15Q16.63 14.41 16.03 14.41L16.03 14.41L16.03 14.41Q15.30 14.41 14.78 14.14L14.78 14.14L14.78 14.14Q14.27 13.87 14.07 13.36L14.07 13.36L14.07 13.36Q13.65 13.86 13.08 14.13L13.08 14.13L13.08 14.13Q12.50 14.41 11.84 14.41L11.84 14.41L11.84 14.41Q11.10 14.41 10.60 14.12L10.60 14.12L10.60 14.12Q10.09 13.83 9.85 13.38L9.85 13.38L9.85 13.38Q9.60 12.92 9.60 12.42L9.60 12.42L9.60 12.42Q9.60 12.19 9.65 11.98L9.65 11.98L9.65 11.98Q9.87 11.02 10.62 10.53L10.62 10.53L10.62 10.53Q11.37 10.04 12.40 10.04L12.40 10.04L12.40 10.04Q13.57 10.04 14.69 10.40L14.69 10.40L15.04 9.48L15.04 9.48Q15.22 8.89 15.22 8.57L15.22 8.57L15.22 8.57Q15.20 8.23 14.99 8.06L14.99 8.06L14.99 8.06Q14.78 7.90 14.35 7.90L14.35 7.90L14.35 7.90Q14.43 8.12 14.43 8.36L14.43 8.36L14.43 8.36Q14.43 8.88 14.04 9.25L14.04 9.25L14.04 9.25Q13.65 9.63 12.92 9.63L12.92 9.63L12.92 9.63Q12.24 9.63 11.85 9.33L11.85 9.33L11.85 9.33Q11.47 9.03 11.47 8.58L11.47 8.58L11.47 8.58Q11.47 7.88 12.25 7.42L12.25 7.42L12.25 7.42Q13.03 6.96 14.64 6.96L14.64 6.96ZM13.86 11.20L13.86 11.20Q13.47 11.20 13.22 11.50L13.22 11.50L13.22 11.50Q12.98 11.80 12.98 12.15L12.98 12.15L12.98 12.15Q12.98 12.38 13.08 12.52L13.08 12.52L13.08 12.52Q13.19 12.66 13.38 12.66L13.38 12.66L13.38 12.66Q13.57 12.66 13.78 12.51L13.78 12.51L13.78 12.51Q14 12.36 14.10 12.07L14.10 12.07L14.39 11.24L14.39 11.24Q14.15 11.20 13.86 11.20L13.86 11.20ZM28.32 9.67L27.47 12.43L27.47 12.43Q27.44 12.49 27.44 12.60L27.44 12.60L27.44 12.60Q27.44 12.70 27.49 12.75L27.49 12.75L27.49 12.75Q27.54 12.81 27.62 12.81L27.62 12.81L27.62 12.81Q27.79 12.81 27.91 12.66L27.91 12.66L27.91 12.66Q28.03 12.52 28.07 12.52L28.07 12.52L28.07 12.52Q28.14 12.52 28.18 12.61L28.18 12.61L28.18 12.61Q28.22 12.70 28.22 12.82L28.22 12.82L28.22 12.82Q28.24 13.23 27.96 13.62L27.96 13.62L27.96 13.62Q27.68 14 27.14 14.25L27.14 14.25L27.14 14.25Q26.60 14.49 25.84 14.49L25.84 14.49L25.84 14.49Q24.92 14.49 24.37 14.06L24.37 14.06L24.37 14.06Q23.83 13.64 23.81 12.92L23.81 12.92L23.81 12.92Q23.81 12.40 24.07 11.76L24.07 11.76L24.84 9.74L24.84 9.74Q24.91 9.56 24.91 9.45L24.91 9.45L24.91 9.45Q24.91 9.27 24.79 9.16L24.79 9.16L24.79 9.16Q24.67 9.06 24.50 9.06L24.50 9.06L24.50 9.06Q24.19 9.06 23.91 9.35L23.91 9.35L23.91 9.35Q23.63 9.63 23.51 10.05L23.51 10.05L22.64 12.91L22.64 12.91Q22.58 13.06 22.58 13.20L22.58 13.20L22.58 13.20Q22.58 13.37 22.65 13.48L22.65 13.48L22.65 13.48Q22.72 13.58 22.85 13.69L22.85 13.69L22.85 13.69Q22.95 13.78 22.99 13.85L22.99 13.85L22.99 13.85Q23.03 13.92 23.00 14.01L23.00 14.01L23.00 14.01Q22.95 14.20 22.74 14.28L22.74 14.28L22.74 14.28Q22.53 14.36 22.08 14.36L22.08 14.36L18.89 14.36L18.89 14.36Q18.52 14.36 18.36 14.25L18.36 14.25L18.36 14.25Q18.20 14.13 18.24 13.93L18.24 13.93L18.24 13.93Q18.30 13.76 18.54 13.64L18.54 13.64L18.54 13.64Q18.75 13.52 18.89 13.37L18.89 13.37L18.89 13.37Q19.03 13.22 19.12 12.88L19.12 12.88L20.37 8.83L20.37 8.83Q20.40 8.76 20.40 8.64L20.40 8.64L20.40 8.64Q20.40 8.48 20.34 8.40L20.34 8.40L20.34 8.40Q20.27 8.32 20.13 8.19L20.13 8.19L20.13 8.19Q19.99 8.08 19.94 7.99L19.94 7.99L19.94 7.99Q19.88 7.91 19.92 7.77L19.92 7.77L19.92 7.77Q20.01 7.45 20.80 7.20L20.80 7.20L20.80 7.20Q21.60 6.96 22.47 6.96L22.47 6.96L22.47 6.96Q23.17 6.96 23.58 7.34L23.58 7.34L23.58 7.34Q23.98 7.73 23.94 8.41L23.94 8.41L23.94 8.41Q24.51 7.59 25.16 7.27L25.16 7.27L25.16 7.27Q25.80 6.96 26.56 6.96L26.56 6.96L26.56 6.96Q27.41 6.96 27.94 7.48L27.94 7.48L27.94 7.48Q28.46 7.99 28.46 8.82L28.46 8.82L28.46 8.82Q28.46 9.25 28.32 9.67L28.32 9.67ZM37.13 6.96L37.13 6.96Q37.93 6.96 38.41 7.40L38.41 7.40L38.41 7.40Q38.89 7.84 38.89 8.47L38.89 8.47L38.89 8.47Q38.89 9.14 38.49 9.52L38.49 9.52L38.49 9.52Q38.08 9.90 37.42 9.90L37.42 9.90L37.42 9.90Q36.83 9.90 36.51 9.60L36.51 9.60L36.51 9.60Q36.19 9.30 36.20 8.92L36.20 8.92L36.20 8.92Q36.06 8.89 35.97 9.03L35.97 9.03L35.97 9.03Q35.87 9.17 35.76 9.58L35.76 9.58L35.76 9.58Q35.69 9.84 35.49 10.07L35.49 10.07L35.49 10.07Q36.44 10.14 36.90 10.50L36.90 10.50L36.90 10.50Q37.37 10.86 37.37 11.44L37.37 11.44L37.37 11.44Q37.37 11.72 37.27 12.00L37.27 12.00L37.16 12.43L37.16 12.43Q37.13 12.50 37.13 12.61L37.13 12.61L37.13 12.61Q37.13 12.81 37.31 12.81L37.31 12.81L37.31 12.81Q37.48 12.81 37.60 12.66L37.60 12.66L37.60 12.66Q37.72 12.52 37.76 12.52L37.76 12.52L37.76 12.52Q37.83 12.52 37.87 12.61L37.87 12.61L37.87 12.61Q37.91 12.70 37.91 12.82L37.91 12.82L37.91 12.82Q37.93 13.23 37.67 13.62L37.67 13.62L37.67 13.62Q37.41 14 36.88 14.25L36.88 14.25L36.88 14.25Q36.36 14.49 35.62 14.49L35.62 14.49L35.62 14.49Q34.72 14.49 34.13 14.04L34.13 14.04L34.13 14.04Q33.53 13.59 33.53 12.87L33.53 12.87L33.53 12.87Q33.53 12.60 33.64 12.26L33.64 12.26L33.91 11.56L33.91 11.56Q33.98 11.31 33.98 11.20L33.98 11.20L33.98 11.20Q33.98 11.02 33.86 10.93L33.86 10.93L33.86 10.93Q33.74 10.85 33.49 10.85L33.49 10.85L33.21 10.85L32.58 12.91L32.58 12.91Q32.54 13.08 32.54 13.20L32.54 13.20L32.54 13.20Q32.54 13.38 32.61 13.49L32.61 13.49L32.61 13.49Q32.68 13.59 32.80 13.69L32.80 13.69L32.80 13.69Q32.90 13.79 32.94 13.85L32.94 13.85L32.94 13.85Q32.98 13.92 32.96 14.01L32.96 14.01L32.96 14.01Q32.89 14.20 32.68 14.28L32.68 14.28L32.68 14.28Q32.47 14.36 32.03 14.36L32.03 14.36L28.84 14.36L28.84 14.36Q28.48 14.36 28.31 14.25L28.31 14.25L28.31 14.25Q28.14 14.13 28.20 13.93L28.20 13.93L28.20 13.93Q28.25 13.76 28.49 13.64L28.49 13.64L28.49 13.64Q28.70 13.52 28.84 13.37L28.84 13.37L28.84 13.37Q28.98 13.22 29.08 12.88L29.08 12.88L31.21 5.89L31.21 5.89Q31.25 5.77 31.25 5.68L31.25 5.68L31.25 5.68Q31.25 5.53 31.17 5.43L31.17 5.43L31.17 5.43Q31.09 5.33 30.97 5.24L30.97 5.24L30.97 5.24Q30.83 5.12 30.77 5.04L30.77 5.04L30.77 5.04Q30.70 4.96 30.74 4.82L30.74 4.82L30.74 4.82Q30.83 4.49 31.63 4.26L31.63 4.26L31.63 4.26Q32.42 4.02 33.29 4.02L33.29 4.02L33.29 4.02Q34.10 4.02 34.48 4.32L34.48 4.32L34.48 4.32Q34.86 4.62 34.86 5.15L34.86 5.15L34.86 5.15Q34.86 5.47 34.76 5.77L34.76 5.77L33.54 9.74L34.01 9.74L34.01 9.74Q34.29 9.74 34.46 9.58L34.46 9.58L34.46 9.58Q34.64 9.41 34.73 9.09L34.73 9.09L34.73 9.09Q35.08 8.05 35.64 7.50L35.64 7.50L35.64 7.50Q36.20 6.96 37.13 6.96L37.13 6.96ZM48.06 8.72L46.93 12.43L46.93 12.43Q46.90 12.54 46.90 12.60L46.90 12.60L46.90 12.60Q46.90 12.70 46.95 12.75L46.95 12.75L46.95 12.75Q47.00 12.81 47.08 12.81L47.08 12.81L47.08 12.81Q47.25 12.81 47.37 12.66L47.37 12.66L47.37 12.66Q47.49 12.52 47.53 12.52L47.53 12.52L47.53 12.52Q47.60 12.52 47.65 12.61L47.65 12.61L47.65 12.61Q47.70 12.70 47.70 12.82L47.70 12.82L47.70 12.82Q47.71 13.22 47.42 13.60L47.42 13.60L47.42 13.60Q47.12 13.99 46.59 14.24L46.59 14.24L46.59 14.24Q46.06 14.49 45.40 14.49L45.40 14.49L45.40 14.49Q44.58 14.49 44.09 14.15L44.09 14.15L44.09 14.15Q43.60 13.82 43.46 13.27L43.46 13.27L43.46 13.27Q42.95 13.83 42.34 14.12L42.34 14.12L42.34 14.12Q41.73 14.41 41.10 14.41L41.10 14.41L41.10 14.41Q40.12 14.41 39.46 13.92L39.46 13.92L39.46 13.92Q38.79 13.44 38.79 12.57L38.79 12.57L38.79 12.57Q38.79 12.18 38.93 11.76L38.93 11.76L39.83 8.83L39.83 8.83Q39.87 8.71 39.87 8.62L39.87 8.62L39.87 8.62Q39.87 8.47 39.80 8.38L39.80 8.38L39.80 8.38Q39.73 8.29 39.59 8.19L39.59 8.19L39.59 8.19Q39.45 8.08 39.40 7.99L39.40 7.99L39.40 7.99Q39.34 7.91 39.38 7.77L39.38 7.77L39.38 7.77Q39.47 7.45 40.26 7.20L40.26 7.20L40.26 7.20Q41.06 6.96 41.93 6.96L41.93 6.96L41.93 6.96Q42.74 6.96 43.12 7.27L43.12 7.27L43.12 7.27Q43.50 7.57 43.50 8.11L43.50 8.11L43.50 8.11Q43.50 8.43 43.40 8.72L43.40 8.72L42.52 11.63L42.52 11.63Q42.46 11.79 42.46 11.93L42.46 11.93L42.46 11.93Q42.46 12.12 42.57 12.22L42.57 12.22L42.57 12.22Q42.69 12.32 42.87 12.32L42.87 12.32L42.87 12.32Q43.13 12.32 43.30 12.17L43.30 12.17L43.30 12.17Q43.47 12.01 43.64 11.65L43.64 11.65L44.49 8.83L44.49 8.83Q44.53 8.71 44.53 8.62L44.53 8.62L44.53 8.62Q44.53 8.47 44.46 8.38L44.46 8.38L44.46 8.38Q44.39 8.29 44.27 8.19L44.27 8.19L44.27 8.19Q44.13 8.08 44.07 7.99L44.07 7.99L44.07 7.99Q44.02 7.91 44.06 7.77L44.06 7.77L44.06 7.77Q44.13 7.45 44.93 7.20L44.93 7.20L44.93 7.20Q45.72 6.96 46.59 6.96L46.59 6.96L46.59 6.96Q47.40 6.96 47.79 7.27L47.79 7.27L47.79 7.27Q48.17 7.57 48.17 8.09L48.17 8.09L48.17 8.09Q48.17 8.36 48.06 8.72L48.06 8.72Z"></path></g><!----><g data-v-423bf9ae="" id="430d4a2b-d550-41a3-bc06-a7366e069911" transform="matrix(1.570872447910539,0,0,1.570872447910539,0.5969653673073338,-19.416204615406656)" stroke="none" fill="black"><path d="M79.819 31.377c-.146 3.156-1.882 5.77-4.226 6.573 1.652-1.278 2.756-3.564 2.756-6.182 0-.962-.142-1.843-.401-2.665-3.407-9.097-12.158-16.112-26.673-16.112-15.459 0-28.016 11.951-28.313 24.89a22.263 22.263 0 0 0-3.865-.336C8.55 37.546 0 44.875 0 53.914 0 62.956 6.139 70.15 16.687 70.15l61.585.133.044.001.05-.001.646.001.004-.019c13.504-.201 20.805-6.133 20.805-18.356 0-10.901-8.832-19.788-20.002-20.532z"></path></g><!----><g data-v-423bf9ae="" id="a5d82c14-e4dd-4010-b151-2c1d3df49d14" fill="black" transform="matrix(0.984044861843656,0,0,0.984044861843656,175.9204304149113,54.41062478012408)"><path d="M4.34 14.78L4.34 14.78L4.34 14.78Q4.94 14.78 5.37 14.58L5.37 14.58L5.37 14.58Q5.80 14.38 6.07 14.04L6.07 14.04L6.07 14.04Q6.34 13.69 6.48 13.25L6.48 13.25L6.48 13.25Q6.61 12.81 6.61 12.32L6.61 12.32L6.61 12.15L7.78 12.15L7.78 12.32L7.78 12.32Q7.78 13.06 7.56 13.71L7.56 13.71L7.56 13.71Q7.34 14.36 6.90 14.85L6.90 14.85L6.90 14.85Q6.47 15.33 5.82 15.60L5.82 15.60L5.82 15.60Q5.18 15.88 4.34 15.88L4.34 15.88L4.34 15.88Q2.72 15.88 1.81 14.85L1.81 14.85L1.81 14.85Q0.90 13.83 0.90 11.87L0.90 11.87L0.90 9.69L0.90 9.69Q0.90 7.78 1.81 6.73L1.81 6.73L1.81 6.73Q2.72 5.68 4.34 5.68L4.34 5.68L4.34 5.68Q5.18 5.68 5.82 5.96L5.82 5.96L5.82 5.96Q6.47 6.23 6.90 6.71L6.90 6.71L6.90 6.71Q7.34 7.20 7.56 7.85L7.56 7.85L7.56 7.85Q7.78 8.50 7.78 9.24L7.78 9.24L7.78 9.41L6.61 9.41L6.61 9.24L6.61 9.24Q6.59 8.76 6.46 8.32L6.46 8.32L6.46 8.32Q6.33 7.87 6.05 7.53L6.05 7.53L6.05 7.53Q5.78 7.18 5.36 6.98L5.36 6.98L5.36 6.98Q4.94 6.78 4.34 6.78L4.34 6.78L4.34 6.78Q3.21 6.78 2.64 7.60L2.64 7.60L2.64 7.60Q2.07 8.43 2.07 9.77L2.07 9.77L2.07 11.79L2.07 11.79Q2.07 13.23 2.64 14.01L2.64 14.01L2.64 14.01Q3.21 14.78 4.34 14.78ZM16.79 15.68L16.79 5.88L17.96 5.88L17.96 14.59L23.09 14.59L23.09 15.68L16.79 15.68ZM31.98 11.87L31.98 9.69L31.98 9.69Q31.98 7.78 32.89 6.73L32.89 6.73L32.89 6.73Q33.80 5.68 35.42 5.68L35.42 5.68L35.42 5.68Q37.04 5.68 37.95 6.73L37.95 6.73L37.95 6.73Q38.86 7.78 38.86 9.69L38.86 9.69L38.86 11.87L38.86 11.87Q38.86 13.83 37.95 14.85L37.95 14.85L37.95 14.85Q37.04 15.88 35.42 15.88L35.42 15.88L35.42 15.88Q33.80 15.88 32.89 14.85L32.89 14.85L32.89 14.85Q31.98 13.83 31.98 11.87L31.98 11.87ZM35.42 14.78L35.42 14.78L35.42 14.78Q36.55 14.78 37.12 14.01L37.12 14.01L37.12 14.01Q37.69 13.23 37.69 11.79L37.69 11.79L37.69 9.77L37.69 9.77Q37.69 8.43 37.12 7.60L37.12 7.60L37.12 7.60Q36.55 6.78 35.42 6.78L35.42 6.78L35.42 6.78Q34.29 6.78 33.72 7.60L33.72 7.60L33.72 7.60Q33.15 8.43 33.15 9.77L33.15 9.77L33.15 11.79L33.15 11.79Q33.15 13.23 33.72 14.01L33.72 14.01L33.72 14.01Q34.29 14.78 35.42 14.78ZM47.63 5.88L48.80 5.88L48.80 12.38L48.80 12.38Q48.80 13.57 49.36 14.17L49.36 14.17L49.36 14.17Q49.91 14.78 50.99 14.78L50.99 14.78L50.99 14.78Q52.07 14.78 52.62 14.17L52.62 14.17L52.62 14.17Q53.17 13.57 53.17 12.38L53.17 12.38L53.17 5.88L54.35 5.88L54.35 12.38L54.35 12.38Q54.35 14.08 53.45 14.98L53.45 14.98L53.45 14.98Q52.56 15.88 50.99 15.88L50.99 15.88L50.99 15.88Q49.42 15.88 48.52 14.98L48.52 14.98L48.52 14.98Q47.63 14.08 47.63 12.38L47.63 12.38L47.63 5.88ZM63.29 6.97L63.29 5.88L66.51 5.88L66.51 5.88Q68.33 5.88 69.17 6.75L69.17 6.75L69.17 6.75Q70.01 7.62 70.01 9.52L70.01 9.52L70.01 12.04L70.01 12.04Q70.01 13.94 69.17 14.81L69.17 14.81L69.17 14.81Q68.33 15.68 66.51 15.68L66.51 15.68L63.29 15.68L63.29 14.57L64.13 14.57L64.13 6.97L63.29 6.97ZM65.31 14.59L66.35 14.59L66.35 14.59Q66.99 14.59 67.46 14.46L67.46 14.46L67.46 14.46Q67.93 14.34 68.24 14.04L68.24 14.04L68.24 14.04Q68.54 13.73 68.69 13.23L68.69 13.23L68.69 13.23Q68.84 12.73 68.84 11.96L68.84 11.96L68.84 9.60L68.84 9.60Q68.84 8.83 68.69 8.33L68.69 8.33L68.69 8.33Q68.54 7.83 68.24 7.53L68.24 7.53L68.24 7.53Q67.93 7.22 67.46 7.10L67.46 7.10L67.46 7.10Q66.99 6.97 66.35 6.97L66.35 6.97L65.31 6.97L65.31 14.59ZM100.51 15.68L99.79 13.24L95.59 13.24L94.88 15.68L93.62 15.68L96.59 5.88L98.80 5.88L101.77 15.68L100.51 15.68ZM97.78 6.38L97.61 6.38L95.91 12.15L99.47 12.15L97.78 6.38ZM109.90 5.88L111.08 5.88L111.08 12.38L111.08 12.38Q111.08 13.57 111.63 14.17L111.63 14.17L111.63 14.17Q112.18 14.78 113.26 14.78L113.26 14.78L113.26 14.78Q114.34 14.78 114.89 14.17L114.89 14.17L114.89 14.17Q115.44 13.57 115.44 12.38L115.44 12.38L115.44 5.88L116.62 5.88L116.62 12.38L116.62 12.38Q116.62 14.08 115.72 14.98L115.72 14.98L115.72 14.98Q114.83 15.88 113.26 15.88L113.26 15.88L113.26 15.88Q111.69 15.88 110.80 14.98L110.80 14.98L110.80 14.98Q109.90 14.08 109.90 12.38L109.90 12.38L109.90 5.88ZM125.38 6.97L125.38 5.88L132.27 5.88L132.27 6.97L129.42 6.97L129.42 15.68L128.24 15.68L128.24 6.97L125.38 6.97ZM140.95 11.87L140.95 9.69L140.95 9.69Q140.95 7.78 141.86 6.73L141.86 6.73L141.86 6.73Q142.77 5.68 144.40 5.68L144.40 5.68L144.40 5.68Q146.02 5.68 146.93 6.73L146.93 6.73L146.93 6.73Q147.84 7.78 147.84 9.69L147.84 9.69L147.84 11.87L147.84 11.87Q147.84 13.83 146.93 14.85L146.93 14.85L146.93 14.85Q146.02 15.88 144.40 15.88L144.40 15.88L144.40 15.88Q142.77 15.88 141.86 14.85L141.86 14.85L141.86 14.85Q140.95 13.83 140.95 11.87L140.95 11.87ZM144.40 14.78L144.40 14.78L144.40 14.78Q145.53 14.78 146.10 14.01L146.10 14.01L146.10 14.01Q146.66 13.23 146.66 11.79L146.66 11.79L146.66 9.77L146.66 9.77Q146.66 8.43 146.10 7.60L146.10 7.60L146.10 7.60Q145.53 6.78 144.40 6.78L144.40 6.78L144.40 6.78Q143.26 6.78 142.69 7.60L142.69 7.60L142.69 7.60Q142.13 8.43 142.13 9.77L142.13 9.77L142.13 11.79L142.13 11.79Q142.13 13.23 142.69 14.01L142.69 14.01L142.69 14.01Q143.26 14.78 144.40 14.78ZM156.32 15.68L156.32 5.88L158.56 5.88L159.88 15.18L160.05 15.18L161.36 5.88L163.60 5.88L163.60 15.68L162.51 15.68L162.51 6.38L162.34 6.38L161.03 15.68L158.90 15.68L157.58 6.38L157.42 6.38L157.42 15.68L156.32 15.68ZM178.35 15.68L177.63 13.24L173.43 13.24L172.72 15.68L171.46 15.68L174.43 5.88L176.64 5.88L179.61 15.68L178.35 15.68ZM175.62 6.38L175.45 6.38L173.75 12.15L177.31 12.15L175.62 6.38ZM187.66 6.97L187.66 5.88L194.54 5.88L194.54 6.97L191.69 6.97L191.69 15.68L190.51 15.68L190.51 6.97L187.66 6.97ZM203.70 15.68L203.70 5.88L209.64 5.88L209.64 6.97L204.88 6.97L204.88 10.22L209.55 10.22L209.55 11.31L204.88 11.31L204.88 14.59L209.72 14.59L209.72 15.68L203.70 15.68ZM218.97 6.97L218.97 5.88L222.19 5.88L222.19 5.88Q224.01 5.88 224.85 6.75L224.85 6.75L224.85 6.75Q225.69 7.62 225.69 9.52L225.69 9.52L225.69 12.04L225.69 12.04Q225.69 13.94 224.85 14.81L224.85 14.81L224.85 14.81Q224.01 15.68 222.19 15.68L222.19 15.68L218.97 15.68L218.97 14.57L219.81 14.57L219.81 6.97L218.97 6.97ZM220.99 14.59L222.03 14.59L222.03 14.59Q222.67 14.59 223.14 14.46L223.14 14.46L223.14 14.46Q223.61 14.34 223.92 14.04L223.92 14.04L223.92 14.04Q224.22 13.73 224.37 13.23L224.37 13.23L224.37 13.23Q224.52 12.73 224.52 11.96L224.52 11.96L224.52 9.60L224.52 9.60Q224.52 8.83 224.37 8.33L224.37 8.33L224.37 8.33Q224.22 7.83 223.92 7.53L223.92 7.53L223.92 7.53Q223.61 7.22 223.14 7.10L223.14 7.10L223.14 7.10Q222.67 6.97 222.03 6.97L222.03 6.97L220.99 6.97L220.99 14.59Z"></path></g></svg>