<svg data-v-fde0c5aa="" xmlns="http://www.w3.org/2000/svg" viewBox="0 0 300 300" class="icon"><!----><defs data-v-fde0c5aa=""><!----></defs><rect data-v-fde0c5aa="" fill="#00acff" x="0" y="0" width="300px" height="300px" class="logo-background-square"></rect><!----><defs data-v-fde0c5aa=""><!----></defs><g data-v-fde0c5aa="" id="508e415c-3365-4a6c-a4aa-080db256e5b2" fill="#010033" stroke="none" transform="matrix(2.203944912077503,0,0,2.203944912077503,40,58.23323783820512)"><path d="M79.819 31.377c-.146 3.156-1.882 5.77-4.226 6.573 1.652-1.278 2.756-3.564 2.756-6.182 0-.962-.142-1.843-.401-2.665-3.407-9.097-12.158-16.112-26.673-16.112-15.459 0-28.016 11.951-28.313 24.89a22.263 22.263 0 0 0-3.865-.336C8.55 37.546 0 44.875 0 53.914 0 62.956 6.139 70.15 16.687 70.15l61.585.133.044.001.05-.001.646.001.004-.019c13.504-.201 20.805-6.133 20.805-18.356 0-10.901-8.832-19.788-20.002-20.532z"></path></g><!----></svg>