<svg data-v-423bf9ae="" xmlns="http://www.w3.org/2000/svg" viewBox="0 0 104.53737951025688 60" class="icon"><!----><!----><!----><!----><g data-v-423bf9ae="" id="5943a4a5-f49c-401e-914d-edd2951d4eed" transform="matrix(1.047248298607026,0,0,1.047248298607026,1.1570590885412457e-7,-13.6048038297047)" stroke="none" fill="white"><path d="M79.819 31.377c-.146 3.156-1.882 5.77-4.226 6.573 1.652-1.278 2.756-3.564 2.756-6.182 0-.962-.142-1.843-.401-2.665-3.407-9.097-12.158-16.112-26.673-16.112-15.459 0-28.016 11.951-28.313 24.89a22.263 22.263 0 0 0-3.865-.336C8.55 37.546 0 44.875 0 53.914 0 62.956 6.139 70.15 16.687 70.15l61.585.133.044.001.05-.001.646.001.004-.019c13.504-.201 20.805-6.133 20.805-18.356 0-10.901-8.832-19.788-20.002-20.532z"></path></g><!----></svg>